<?xml version="1.0" standalone="no"?>
<!DOCTYPE svg PUBLIC "-//W3C//DTD SVG 20010904//EN"
 "http://www.w3.org/TR/2001/REC-SVG-20010904/DTD/svg10.dtd">
<svg version="1.0" xmlns="http://www.w3.org/2000/svg"
 width="1000.000000pt" height="1000.000000pt" viewBox="0 0 1000.000000 1000.000000"
 preserveAspectRatio="xMidYMid meet">
<metadata>
Created by potrace 1.14, written by Peter Selinger 2001-2017
</metadata>
<g transform="translate(0.000000,1000.000000) scale(0.100000,-0.100000)"
fill="#000000" stroke="none">
<path d="M5088 9463 c-236 -250 -341 -366 -494 -548 -575 -685 -1041 -1461
-1308 -2177 -114 -307 -193 -608 -237 -908 -26 -175 -36 -507 -20 -661 41
-390 189 -753 428 -1049 98 -121 281 -295 393 -373 53 -37 86 -447 59 -723
-12 -124 -49 -325 -79 -429 -11 -38 -20 -73 -20 -77 0 -4 42 13 93 36 90 43
278 116 295 116 5 0 7 68 4 153 -2 84 1 206 7 272 12 124 57 382 70 404 7 10
30 6 107 -19 227 -73 384 -94 655 -88 215 6 328 22 495 72 103 31 244 86 321
125 58 29 65 30 117 20 156 -29 424 -28 611 2 247 39 523 149 742 295 61 41
114 78 118 83 3 5 314 -299 693 -676 467 -466 700 -691 727 -704 134 -62 295
42 295 191 0 85 15 69 -716 800 l-694 695 29 35 c93 114 228 366 284 530 71
211 99 384 99 615 -1 322 -70 604 -218 883 -281 532 -806 903 -1401 988 -194
28 -509 18 -665 -21 -21 -5 -29 5 -85 102 -287 505 -443 934 -493 1358 -16
137 -15 387 4 649 18 253 19 256 8 256 -4 0 -105 -102 -224 -227z m-98 -788
c0 -8 14 -59 31 -112 118 -371 340 -789 632 -1188 39 -53 61 -92 54 -94 -77
-24 -281 -113 -352 -153 -273 -154 -533 -403 -688 -656 -160 -263 -253 -551
-278 -860 -54 -673 277 -1343 848 -1716 116 -76 313 -173 421 -207 39 -13 69
-26 65 -30 -5 -4 -48 -17 -96 -28 -444 -108 -894 -49 -1261 167 -197 115 -402
302 -535 488 -71 100 -177 310 -215 424 -63 191 -92 404 -82 609 38 820 470
1865 1309 3169 72 111 134 202 139 202 4 0 8 -7 8 -15z m1495 -1749 c297 -46
547 -165 778 -369 125 -111 261 -297 337 -460 263 -568 145 -1224 -301 -1667
-206 -205 -495 -354 -784 -403 -44 -8 -82 -13 -84 -11 -2 2 16 27 41 56 162
191 302 453 373 698 32 111 71 308 62 316 -2 2 -14 -47 -26 -111 -65 -344
-229 -655 -478 -901 l-65 -64 -103 0 c-133 0 -303 29 -435 75 -480 167 -838
559 -954 1046 -89 372 -35 745 156 1079 196 342 555 608 936 694 l62 14 117
-146 c429 -537 653 -885 741 -1152 17 -52 31 -88 31 -78 1 23 -61 199 -104
293 -72 157 -203 375 -437 728 -131 197 -236 362 -233 368 9 14 268 10 370 -5z"/>
<path d="M5300 6154 c-70 -47 -171 -164 -224 -259 -167 -301 -150 -646 49
-1023 171 -322 385 -518 651 -594 140 -40 433 -25 441 22 2 10 -21 24 -69 43
-309 119 -611 394 -761 692 -157 313 -186 701 -77 1028 40 117 39 123 -10 91z"/>
<path d="M3205 2426 c-64 -29 -95 -91 -75 -152 26 -76 120 -113 201 -77 58 26
72 44 77 106 3 43 0 57 -19 81 -41 52 -121 70 -184 42z"/>
<path d="M7280 1890 l0 -460 125 0 124 0 3 134 3 133 90 -133 90 -134 153 0
153 0 -108 133 c-59 72 -121 150 -139 172 l-32 40 134 170 c73 94 134 173 134
178 0 4 -66 6 -147 5 l-146 -3 -91 -130 -91 -130 -3 243 -2 242 -125 0 -125 0
0 -460z"/>
<path d="M1500 2310 c-68 -15 -146 -57 -180 -98 -62 -75 -75 -201 -28 -282 40
-69 83 -94 302 -175 58 -21 86 -47 86 -78 0 -34 -30 -57 -73 -57 -41 0 -77 28
-77 59 0 17 -9 20 -72 23 -118 5 -198 -1 -198 -16 0 -7 7 -36 16 -65 34 -117
148 -190 309 -199 160 -8 275 44 328 149 58 114 31 241 -66 307 -37 25 -213
102 -235 102 -4 0 -24 11 -45 25 -42 29 -50 70 -19 98 35 32 100 11 109 -35
l6 -28 133 0 134 0 0 33 c0 46 -45 131 -88 167 -21 17 -60 39 -89 50 -62 23
-189 33 -253 20z"/>
<path d="M5079 2288 c-3 -39 -4 -835 -1 -845 3 -10 64 -13 261 -13 l257 0 -1
93 0 92 -135 5 -135 5 0 338 0 337 -122 0 c-91 0 -123 -3 -124 -12z"/>
<path d="M6655 2129 c-22 -4 -52 -12 -67 -18 -39 -15 -116 -88 -138 -131 -39
-76 -54 -185 -39 -280 25 -158 125 -265 258 -277 81 -8 121 2 181 42 l50 34 0
-35 0 -34 125 0 125 0 0 350 0 351 -122 -3 -123 -3 -5 -39 c-4 -35 -7 -37 -19
-23 -41 51 -144 80 -226 66z"/>
<path d="M8301 2128 c-155 -17 -248 -125 -226 -260 12 -68 71 -121 165 -147
139 -40 183 -56 194 -73 27 -45 -78 -69 -122 -28 -12 12 -22 27 -22 35 0 12
-22 15 -121 15 l-122 0 6 -41 c16 -119 154 -209 322 -209 198 0 313 102 290
255 -7 53 -49 106 -105 135 -20 10 -81 30 -135 44 -107 27 -137 45 -119 74 16
26 88 28 112 4 11 -11 21 -25 24 -33 3 -10 31 -13 112 -12 59 0 110 3 113 6
11 12 -29 106 -62 145 -64 74 -169 105 -304 90z"/>
<path d="M1990 2114 c0 -14 132 -544 160 -646 l11 -38 139 0 c77 0 140 3 140
6 0 14 81 350 88 368 5 13 22 -43 52 -178 l45 -196 140 0 140 0 84 333 c47
182 87 340 89 350 4 15 -6 17 -112 17 -64 0 -116 -1 -117 -2 0 -2 -18 -102
-39 -223 -21 -121 -39 -217 -39 -214 -1 5 -71 310 -96 417 -5 22 -7 23 -137
20 l-132 -3 -32 -140 c-17 -77 -40 -176 -50 -220 l-18 -80 -37 220 c-21 121
-38 221 -39 223 0 1 -54 2 -120 2 -103 0 -120 -2 -120 -16z"/>
<path d="M3147 2123 c-4 -3 -7 -161 -7 -350 l0 -343 125 0 125 0 0 350 0 350
-118 0 c-65 0 -122 -3 -125 -7z"/>
<path d="M3527 2123 c-4 -3 -7 -161 -7 -350 l0 -343 125 0 125 0 0 195 c0 210
8 252 50 275 29 16 103 15 129 -1 37 -24 43 -59 43 -268 l1 -201 123 0 123 0
3 208 c3 217 7 234 51 261 25 16 99 16 124 0 44 -27 48 -45 51 -261 l4 -208
122 0 123 0 -2 245 -2 244 -32 66 c-48 98 -128 145 -247 145 -72 0 -140 -26
-190 -74 l-43 -42 -33 34 c-95 102 -281 110 -373 18 l-25 -25 0 44 0 45 -118
0 c-65 0 -122 -3 -125 -7z"/>
<path d="M5863 2111 c-139 -48 -216 -168 -217 -337 0 -223 151 -364 378 -352
136 7 233 69 287 183 l29 60 -132 3 c-129 3 -132 2 -158 -23 -28 -27 -76 -33
-112 -14 -16 9 -48 64 -48 83 0 3 102 7 228 8 l227 3 0 82 c-1 73 -4 88 -35
149 -40 78 -102 132 -182 158 -68 22 -198 21 -265 -3z"/>
<path d="M3070 1043 c-28 -3 -41 -12 -63 -46 l-28 -42 3 40 3 40 -39 0 -39 0
-23 -135 c-13 -74 -26 -152 -30 -172 -6 -37 -6 -38 22 -38 43 0 53 11 64 70 6
29 12 55 14 57 2 2 7 -23 11 -56 l7 -61 53 0 53 0 -28 93 -28 92 54 77 c58 83
61 89 42 86 -7 -1 -29 -3 -48 -5z"/>
<path d="M6319 1043 c-22 -3 -31 -16 -58 -81 -30 -73 -31 -75 -26 -32 3 25 8
60 11 78 l6 33 -53 -7 c-30 -4 -55 -7 -55 -8 -1 0 -22 -68 -47 -151 -25 -82
-49 -158 -53 -168 -6 -16 -2 -18 37 -15 l43 3 23 75 22 75 -6 -77 -6 -78 30 0
c28 0 32 5 56 68 l27 67 -6 -67 -6 -67 38 6 c22 3 42 8 45 12 4 3 15 75 24
160 9 85 19 160 22 168 5 13 -11 15 -68 6z"/>
<path d="M6959 1043 c-21 -3 -29 -15 -49 -68 -13 -36 -27 -65 -31 -65 -3 0 -2
27 3 61 5 33 8 62 6 65 -2 2 -27 1 -54 -2 l-50 -6 -17 -62 c-9 -33 -32 -109
-51 -168 l-34 -108 39 0 c43 0 45 2 73 95 l15 50 -5 -73 -5 -73 32 3 c29 3 34
8 51 57 25 76 32 76 24 3 l-7 -63 38 7 c21 3 42 10 46 14 5 4 15 68 23 141 7
74 16 149 19 167 6 34 3 36 -66 25z"/>
<path d="M7274 1040 c-35 -14 -98 -94 -118 -151 -35 -95 -20 -188 32 -201 26
-7 89 15 117 42 46 43 78 119 83 196 4 68 3 74 -21 98 -27 26 -55 31 -93 16z"/>
<path d="M2029 1033 c-16 -4 -34 -85 -74 -316 l-5 -27 73 6 c39 4 74 8 76 10
2 2 1 15 -3 29 -5 18 -13 25 -30 25 l-24 0 24 113 c14 61 27 124 31 140 5 25
3 27 -23 26 -16 -1 -36 -3 -45 -6z"/>
<path d="M2308 1033 c-16 -2 -28 -8 -28 -12 0 -10 -49 -279 -57 -310 -6 -23
-5 -24 53 -17 95 12 102 15 106 48 5 29 4 30 -30 24 -34 -5 -34 -5 -28 26 3
17 6 34 6 39 0 4 15 9 33 11 27 2 33 8 35 31 3 24 0 27 -29 27 -28 0 -31 3
-25 23 3 12 6 30 6 40 0 13 9 17 40 17 28 0 40 4 40 14 0 8 3 21 6 30 5 13 -2
16 -47 15 -30 -1 -66 -4 -81 -6z"/>
<path d="M2626 1031 c-27 -6 -30 -13 -77 -170 -27 -91 -47 -166 -45 -169 3 -2
23 -1 45 3 36 6 41 10 47 41 5 25 11 34 26 34 18 0 20 -5 15 -41 l-5 -41 41 6
c23 4 42 8 43 9 1 1 5 70 9 152 3 83 9 158 11 168 5 14 -1 17 -38 16 -24 -1
-56 -4 -72 -8z"/>
<path d="M3491 1031 c-13 -8 -49 -170 -66 -294 l-7 -50 32 7 c18 3 50 6 71 6
37 0 39 2 39 30 0 25 -4 30 -25 30 -14 0 -25 5 -25 10 0 11 48 236 55 258 5
14 -52 17 -74 3z"/>
<path d="M3778 1033 c-16 -2 -28 -5 -28 -6 0 -1 -14 -74 -30 -162 -16 -88 -30
-163 -30 -167 0 -11 22 -10 97 3 61 11 63 12 63 41 0 29 -2 30 -30 25 -27 -6
-30 -4 -30 21 0 38 10 50 45 54 24 2 31 8 33 31 3 24 0 27 -29 27 -30 0 -31 1
-25 31 3 17 6 35 6 40 0 4 17 9 37 11 30 2 38 8 44 31 l7 27 -51 -1 c-29 -1
-64 -4 -79 -6z"/>
<path d="M4092 1023 c-44 -22 -82 -69 -82 -102 0 -21 13 -40 50 -73 35 -32 48
-51 44 -62 -8 -20 -33 -20 -62 0 -26 18 -24 19 -46 -23 -15 -31 -15 -33 6 -53
14 -13 35 -20 60 -20 78 0 128 50 128 126 0 31 -7 44 -41 75 -42 39 -49 71
-16 77 12 2 17 -3 17 -17 0 -18 4 -20 28 -15 55 14 68 48 32 84 -24 24 -73 26
-118 3z"/>
<path d="M4424 1021 c-22 -10 -50 -31 -62 -46 -35 -44 -29 -72 29 -125 36 -33
50 -53 46 -64 -8 -20 -36 -21 -64 -1 -23 16 -24 15 -49 -32 -10 -18 -8 -25 12
-44 20 -18 31 -21 75 -17 71 7 109 47 109 115 0 41 -5 50 -41 85 -41 40 -48
70 -16 76 12 2 17 -3 17 -18 0 -17 4 -20 20 -16 11 3 29 9 40 12 48 13 7 94
-47 94 -16 0 -46 -9 -69 -19z"/>
<path d="M5204 1026 c-48 -21 -84 -66 -84 -103 0 -26 9 -39 45 -70 31 -26 45
-44 43 -58 -4 -25 -40 -32 -58 -10 -19 23 -27 19 -46 -21 -17 -36 -17 -37 5
-55 50 -41 146 -15 176 47 28 59 17 98 -44 151 -34 29 -35 33 -19 48 17 19 38
13 38 -11 0 -17 -1 -17 39 -3 25 9 31 17 31 39 0 56 -56 76 -126 46z"/>
<path d="M5504 1033 l-31 -4 -12 -102 c-6 -56 -14 -133 -17 -171 l-7 -69 48 6
c27 4 50 9 53 12 3 2 13 33 23 67 l18 63 -6 -74 c-5 -68 -5 -73 13 -68 10 3
36 8 56 12 33 5 39 10 47 43 5 20 21 83 35 139 14 56 30 113 36 127 9 25 8 26
-28 26 -20 0 -42 -4 -48 -8 -6 -4 -21 -47 -32 -97 l-21 -90 6 85 c3 47 6 88 7
92 1 7 -4 8 -39 8 -14 0 -25 -6 -25 -12 0 -7 -9 -40 -20 -73 -17 -52 -19 -55
-15 -20 3 22 8 57 11 78 4 27 2 37 -8 35 -7 0 -27 -3 -44 -5z"/>
<path d="M5926 1031 c-29 -6 -30 -7 -63 -166 -18 -88 -33 -163 -33 -167 0 -11
52 -10 69 1 7 5 25 71 42 157 30 157 34 185 22 183 -5 -1 -21 -4 -37 -8z"/>
<path d="M7570 1031 c-21 -6 -26 -16 -34 -56 -4 -28 -18 -103 -31 -168 l-22
-119 36 7 c49 9 50 10 57 65 4 28 10 50 14 50 4 0 13 -25 20 -55 14 -58 19
-61 68 -44 l31 10 -29 67 -28 66 24 19 c50 39 70 119 38 151 -16 17 -96 20
-144 7z"/>
<path d="M7918 1033 c-15 -2 -29 -12 -32 -21 -7 -24 -56 -293 -56 -309 0 -16
15 -16 97 -2 61 11 63 12 63 41 0 29 -2 30 -33 24 l-34 -6 6 37 c6 34 10 38
38 41 22 2 33 9 37 25 9 35 8 37 -24 37 -32 0 -36 11 -24 58 5 17 14 22 39 22
32 0 45 13 45 46 0 14 -55 17 -122 7z"/>
<path d="M4638 713 c-8 -38 -12 -72 -8 -76 4 -5 22 -7 41 -5 31 3 34 7 51 63
25 84 25 85 -26 85 l-43 0 -15 -67z"/>
</g>
</svg>
