<?xml version="1.0" standalone="no"?>
<!DOCTYPE svg PUBLIC "-//W3C//DTD SVG 20010904//EN"
 "http://www.w3.org/TR/2001/REC-SVG-20010904/DTD/svg10.dtd">
<svg version="1.0" xmlns="http://www.w3.org/2000/svg"
 width="1500.000000pt" height="1500.000000pt" viewBox="0 0 1500.000000 1500.000000"
 preserveAspectRatio="xMidYMid meet">
<metadata>
Created by potrace 1.14, written by Peter Selinger 2001-2017
</metadata>
<g transform="translate(0.000000,1500.000000) scale(0.100000,-0.100000)"
fill="#000000" stroke="none">
<path d="M7238 13805 c-2 -2 -64 -6 -138 -10 -74 -3 -142 -8 -150 -10 -8 -2
-46 -7 -85 -10 -38 -3 -86 -7 -105 -10 -19 -2 -55 -7 -80 -10 -89 -12 -205
-30 -340 -54 -217 -38 -515 -112 -749 -187 -174 -56 -487 -169 -506 -184 -5
-4 -21 -11 -35 -15 -14 -4 -53 -21 -87 -36 -33 -16 -64 -29 -68 -29 -8 0 -338
-164 -415 -207 -154 -85 -211 -119 -375 -221 -102 -64 -173 -113 -374 -257
-49 -35 -144 -108 -201 -154 -60 -48 -162 -133 -170 -141 -3 -3 -43 -39 -90
-80 -105 -92 -412 -399 -500 -499 -102 -116 -120 -137 -175 -206 -22 -27 -46
-57 -54 -65 -19 -20 -233 -307 -257 -345 -10 -16 -21 -32 -25 -35 -7 -6 -133
-198 -159 -245 -10 -16 -44 -75 -77 -130 -95 -159 -239 -435 -301 -575 -11
-25 -35 -81 -55 -125 -65 -149 -159 -395 -150 -395 3 0 1 -6 -4 -12 -9 -12
-45 -116 -98 -288 -15 -47 -35 -121 -50 -180 -3 -8 -11 -40 -19 -70 -8 -30
-17 -66 -20 -80 -3 -14 -13 -59 -22 -100 -9 -41 -18 -86 -20 -100 -2 -14 -10
-56 -19 -93 -8 -38 -17 -83 -20 -100 -2 -18 -13 -88 -24 -157 -10 -69 -19
-132 -19 -140 -1 -8 -3 -28 -5 -45 -3 -16 -8 -66 -12 -110 -4 -44 -9 -82 -10
-85 -9 -15 -19 -324 -19 -555 -1 -299 14 -576 39 -745 2 -14 7 -45 10 -70 8
-68 14 -111 20 -155 13 -79 54 -302 75 -395 11 -52 23 -106 26 -120 35 -177
208 -719 279 -875 7 -16 23 -53 34 -81 19 -49 46 -113 76 -179 40 -89 199
-403 216 -426 10 -14 16 -28 13 -31 -2 -3 2 -11 11 -18 8 -7 15 -16 15 -20 0
-28 297 -492 393 -615 4 -5 37 -50 74 -100 62 -83 89 -118 207 -260 97 -117
206 -235 371 -400 240 -240 351 -337 685 -598 78 -61 322 -228 430 -296 104
-64 335 -197 395 -226 33 -17 62 -33 65 -36 14 -17 459 -219 608 -276 155 -59
537 -184 662 -217 301 -79 645 -143 945 -175 55 -6 120 -13 145 -16 188 -20
673 -27 935 -13 188 10 462 43 670 79 93 16 186 32 205 34 19 3 43 8 52 11 9
3 25 6 35 8 10 3 48 11 84 20 37 8 78 17 90 20 39 8 237 62 344 95 203 61 509
175 690 256 33 14 76 34 95 42 253 113 628 324 885 497 190 129 426 304 515
383 8 7 35 30 60 51 159 133 425 388 587 563 89 98 297 349 382 464 41 55 86
116 101 135 80 106 350 533 350 553 0 4 11 22 24 41 54 80 314 616 299 616 -3
0 -1 6 5 13 21 24 186 467 175 467 -3 0 -1 6 5 13 6 7 13 24 15 37 3 14 10 39
17 55 65 165 195 748 225 1005 3 30 8 62 10 70 4 15 10 73 20 180 3 30 7 78
10 105 29 306 24 903 -11 1175 -3 25 -7 63 -9 85 -3 22 -7 63 -11 90 -4 28 -8
61 -9 75 -2 14 -5 39 -8 55 -3 17 -15 86 -27 155 -12 69 -30 166 -41 215 -12
50 -22 99 -25 110 -12 64 -40 171 -80 315 -37 134 -141 439 -201 590 -72 183
-80 201 -166 380 -33 69 -61 127 -62 130 -4 17 -114 220 -196 361 -76 132
-304 479 -338 516 -12 12 -21 25 -21 28 0 11 -143 195 -151 195 -5 0 -9 5 -9
11 0 6 -15 28 -32 48 -18 20 -53 61 -78 91 -219 265 -519 560 -825 813 -161
133 -139 116 -226 179 -41 29 -76 55 -79 58 -10 11 -268 190 -274 190 -2 0
-36 22 -77 48 -160 105 -550 316 -739 400 -406 180 -841 328 -1180 402 -52 11
-111 25 -130 30 -32 8 -159 32 -235 44 -16 3 -70 12 -120 20 -49 8 -117 18
-150 21 -32 4 -62 8 -65 10 -3 1 -45 6 -95 9 -49 4 -103 9 -120 12 -84 13
-796 30 -807 19z"/>
</g>
</svg>
